<svg width="24" height="22" viewBox="0 0 24 22" fill="none" xmlns="http://www.w3.org/2000/svg">
<path fill-rule="evenodd" clip-rule="evenodd" d="M4.00614 20.9925L3.9977 20.9926L3.98937 20.994C3.94454 21.0015 3.89917 21.002 3.85426 20.9955C3.75153 20.9578 3.66062 20.883 3.59608 20.78C3.52956 20.6738 3.49554 20.5443 3.50047 20.4119L3.50057 20.4094V20.4068C3.50057 16.4123 4.44244 13.1135 6.15857 10.7005C7.87341 8.28926 10.368 6.7528 13.4939 6.29202L13.6001 6.27636V2.58464C13.6006 2.46729 13.632 2.35311 13.6891 2.25702C13.7462 2.16086 13.8261 2.08756 13.918 2.04484L13.919 2.04433C14.0103 2.0008 14.1106 1.98912 14.2074 2.01022C14.304 2.03126 14.3943 2.08469 14.4664 2.16515L21.3464 9.96658C21.4436 10.0759 21.5 10.227 21.5 10.3861C21.5 10.5453 21.4439 10.696 21.3467 10.8053L14.4666 18.6068C14.3946 18.6873 14.304 18.741 14.2074 18.7621C14.1106 18.7832 14.0103 18.7715 13.919 18.7279L13.918 18.7275C13.8261 18.6847 13.7461 18.6114 13.6891 18.5152C13.632 18.4191 13.6006 18.3048 13.6001 18.1874L13.6001 14.5441L13.4709 14.5507C9.63531 14.7465 6.77382 16.7306 4.42751 20.7173L4.42655 20.7189L4.42565 20.7206C4.33267 20.8894 4.17379 20.9891 4.00614 20.9925ZM20.2668 10.3864L14.616 3.97871L14.616 6.80748C14.6166 6.95675 14.5675 7.1 14.4807 7.20805C14.3943 7.31586 14.2769 7.38102 14.1529 7.39374C11.4222 7.6755 9.20426 8.77892 7.58733 10.6015C5.97128 12.4231 4.96429 14.9533 4.63709 18.0736L4.58789 18.5428L4.85791 18.1665C5.97161 16.6144 7.3854 15.3756 8.989 14.5456C10.5925 13.7156 12.3429 13.3167 14.1041 13.3794L14.1061 13.3795H14.1082C14.24 13.3795 14.3683 13.4387 14.4643 13.5476C14.5606 13.6568 14.6162 13.8069 14.6162 13.9651V16.7939L20.2668 10.3864Z" fill="#271B47"/>
<path fill-rule="evenodd" clip-rule="evenodd" d="M4.00614 20.9925L3.9977 20.9926L3.98937 20.994C3.94454 21.0015 3.89917 21.002 3.85426 20.9955C3.75153 20.9578 3.66062 20.883 3.59608 20.78C3.52956 20.6738 3.49554 20.5443 3.50047 20.4119L3.50057 20.4094V20.4068C3.50057 16.4123 4.44244 13.1135 6.15857 10.7005C7.87341 8.28926 10.368 6.7528 13.4939 6.29202L13.6001 6.27636V2.58464C13.6006 2.46729 13.632 2.35311 13.6891 2.25702C13.7462 2.16086 13.8261 2.08756 13.918 2.04484L13.919 2.04433C14.0103 2.0008 14.1106 1.98912 14.2074 2.01022C14.304 2.03126 14.3943 2.08469 14.4664 2.16515L21.3464 9.96658C21.4436 10.0759 21.5 10.227 21.5 10.3861C21.5 10.5453 21.4439 10.696 21.3467 10.8053L14.4666 18.6068C14.3946 18.6873 14.304 18.741 14.2074 18.7621C14.1106 18.7832 14.0103 18.7715 13.919 18.7279L13.918 18.7275C13.8261 18.6847 13.7461 18.6114 13.6891 18.5152C13.632 18.4191 13.6006 18.3048 13.6001 18.1874L13.6001 14.5441L13.4709 14.5507C9.63531 14.7465 6.77382 16.7306 4.42751 20.7173L4.42655 20.7189L4.42565 20.7206C4.33267 20.8894 4.17379 20.9891 4.00614 20.9925ZM20.2668 10.3864L14.616 3.97871L14.616 6.80748C14.6166 6.95675 14.5675 7.1 14.4807 7.20805C14.3943 7.31586 14.2769 7.38102 14.1529 7.39374C11.4222 7.6755 9.20426 8.77892 7.58733 10.6015C5.97128 12.4231 4.96429 14.9533 4.63709 18.0736L4.58789 18.5428L4.85791 18.1665C5.97161 16.6144 7.3854 15.3756 8.989 14.5456C10.5925 13.7156 12.3429 13.3167 14.1041 13.3794L14.1061 13.3795H14.1082C14.24 13.3795 14.3683 13.4387 14.4643 13.5476C14.5606 13.6568 14.6162 13.8069 14.6162 13.9651V16.7939L20.2668 10.3864Z" fill="black" fill-opacity="0.2"/>
</svg>
