<svg width="22" height="18" viewBox="0 0 22 18" fill="none" xmlns="http://www.w3.org/2000/svg">
<path fill-rule="evenodd" clip-rule="evenodd" d="M4.76255 0.517642C5.51879 0.278363 6.31639 0.198275 7.1051 0.282418C7.89382 0.366562 8.65657 0.613116 9.34533 1.00656C9.70304 1.21089 10.0368 1.45254 10.3412 1.72682C10.436 1.81226 10.58 1.81253 10.6752 1.72747C11.5133 0.978241 12.5597 0.485461 13.6889 0.323555C15.1973 0.107278 16.7299 0.499128 17.9494 1.41291C19.1689 2.32669 19.9756 3.68755 20.1918 5.19611C20.2839 5.83831 20.2658 6.48487 20.1441 7.1098C19.7945 6.62157 19.313 6.23423 18.7514 5.99975C18.7509 5.80312 18.7367 5.60569 18.7084 5.40882C18.5486 4.29373 17.9524 3.28781 17.0509 2.61236C16.1494 1.9369 15.0166 1.64725 13.9016 1.80712C12.7866 1.96699 11.7808 2.56329 11.1054 3.46483C10.9636 3.6541 10.7408 3.76532 10.5043 3.76486C10.2678 3.76441 10.0454 3.65234 9.90437 3.46252C9.55462 2.9919 9.11123 2.5988 8.60211 2.30797C8.09299 2.01715 7.52917 1.8349 6.94615 1.7727C6.36314 1.7105 5.77356 1.7697 5.21455 1.94657C4.65554 2.12345 4.13921 2.41416 3.69806 2.8004C3.25691 3.18665 2.90051 3.66006 2.6513 4.19082C2.40209 4.72158 2.26546 5.2982 2.25002 5.88436C2.23458 6.47052 2.34067 7.05353 2.56159 7.59667C2.78252 8.13982 3.11351 8.63134 3.53371 9.04027L3.53845 9.04487L3.54002 9.04642L10.3264 15.7683C10.4241 15.8652 10.5818 15.8648 10.6791 15.7675L12.1757 14.2716C12.5348 14.639 12.9806 14.9218 13.4802 15.0867L11.0355 17.5305C10.7439 17.8222 10.2715 17.8233 9.97848 17.5331L2.48691 10.1127L2.48547 10.1113C1.91851 9.55871 1.47184 8.89486 1.17351 8.16143C0.874624 7.42662 0.731106 6.63789 0.751992 5.84489C0.772879 5.05189 0.957718 4.27181 1.29487 3.55376C1.63202 2.83572 2.11418 2.19527 2.71098 1.67274C3.30778 1.15021 4.0063 0.756922 4.76255 0.517642ZM16.75 9C16.75 8.58579 17.0858 8.25 17.5 8.25C17.6124 8.25 17.7183 8.27454 17.8133 8.31833C18.0716 8.43729 18.25 8.69807 18.25 9V11C18.25 11.1381 18.3619 11.25 18.5 11.25H20.5C20.9142 11.25 21.25 11.5858 21.25 12C21.25 12.4142 20.9142 12.75 20.5 12.75H18.5C18.3619 12.75 18.25 12.8619 18.25 13V15C18.25 15.4142 17.9142 15.75 17.5 15.75C17.0858 15.75 16.75 15.4142 16.75 15V13C16.75 12.8619 16.6381 12.75 16.5 12.75H14.5C14.2151 12.75 13.9668 12.5912 13.8397 12.3561C13.7825 12.2504 13.75 12.1294 13.75 12C13.75 11.5858 14.0858 11.25 14.5 11.25H16.5C16.6381 11.25 16.75 11.1381 16.75 11V9Z" fill="#271B47"/>
<path fill-rule="evenodd" clip-rule="evenodd" d="M4.76255 0.517642C5.51879 0.278363 6.31639 0.198275 7.1051 0.282418C7.89382 0.366562 8.65657 0.613116 9.34533 1.00656C9.70304 1.21089 10.0368 1.45254 10.3412 1.72682C10.436 1.81226 10.58 1.81253 10.6752 1.72747C11.5133 0.978241 12.5597 0.485461 13.6889 0.323555C15.1973 0.107278 16.7299 0.499128 17.9494 1.41291C19.1689 2.32669 19.9756 3.68755 20.1918 5.19611C20.2839 5.83831 20.2658 6.48487 20.1441 7.1098C19.7945 6.62157 19.313 6.23423 18.7514 5.99975C18.7509 5.80312 18.7367 5.60569 18.7084 5.40882C18.5486 4.29373 17.9524 3.28781 17.0509 2.61236C16.1494 1.9369 15.0166 1.64725 13.9016 1.80712C12.7866 1.96699 11.7808 2.56329 11.1054 3.46483C10.9636 3.6541 10.7408 3.76532 10.5043 3.76486C10.2678 3.76441 10.0454 3.65234 9.90437 3.46252C9.55462 2.9919 9.11123 2.5988 8.60211 2.30797C8.09299 2.01715 7.52917 1.8349 6.94615 1.7727C6.36314 1.7105 5.77356 1.7697 5.21455 1.94657C4.65554 2.12345 4.13921 2.41416 3.69806 2.8004C3.25691 3.18665 2.90051 3.66006 2.6513 4.19082C2.40209 4.72158 2.26546 5.2982 2.25002 5.88436C2.23458 6.47052 2.34067 7.05353 2.56159 7.59667C2.78252 8.13982 3.11351 8.63134 3.53371 9.04027L3.53845 9.04487L3.54002 9.04642L10.3264 15.7683C10.4241 15.8652 10.5818 15.8648 10.6791 15.7675L12.1757 14.2716C12.5348 14.639 12.9806 14.9218 13.4802 15.0867L11.0355 17.5305C10.7439 17.8222 10.2715 17.8233 9.97848 17.5331L2.48691 10.1127L2.48547 10.1113C1.91851 9.55871 1.47184 8.89486 1.17351 8.16143C0.874624 7.42662 0.731106 6.63789 0.751992 5.84489C0.772879 5.05189 0.957718 4.27181 1.29487 3.55376C1.63202 2.83572 2.11418 2.19527 2.71098 1.67274C3.30778 1.15021 4.0063 0.756922 4.76255 0.517642ZM16.75 9C16.75 8.58579 17.0858 8.25 17.5 8.25C17.6124 8.25 17.7183 8.27454 17.8133 8.31833C18.0716 8.43729 18.25 8.69807 18.25 9V11C18.25 11.1381 18.3619 11.25 18.5 11.25H20.5C20.9142 11.25 21.25 11.5858 21.25 12C21.25 12.4142 20.9142 12.75 20.5 12.75H18.5C18.3619 12.75 18.25 12.8619 18.25 13V15C18.25 15.4142 17.9142 15.75 17.5 15.75C17.0858 15.75 16.75 15.4142 16.75 15V13C16.75 12.8619 16.6381 12.75 16.5 12.75H14.5C14.2151 12.75 13.9668 12.5912 13.8397 12.3561C13.7825 12.2504 13.75 12.1294 13.75 12C13.75 11.5858 14.0858 11.25 14.5 11.25H16.5C16.6381 11.25 16.75 11.1381 16.75 11V9Z" fill="black" fill-opacity="0.2"/>
</svg>
