<svg width="101" height="32" viewBox="0 0 101 32" fill="none" xmlns="http://www.w3.org/2000/svg">
<g clip-path="url(#clip0_170_6009)">
<path d="M8 32C6.42336 32 5.0219 31.4744 3.79562 30.4817C2.62774 29.489 1.69343 28.0292 0.992701 26.2189C0.350365 24.4087 0 22.3065 0 19.9124C0 17.5766 0.291971 15.4744 0.934307 13.6642C1.57664 11.854 2.45256 10.4525 3.56204 9.40143C4.67153 8.35033 5.89781 7.88318 7.35767 7.88318C8 7.88318 8.58394 7.94157 9.10949 8.05836C9.63504 8.17515 10.0438 8.35033 10.4526 8.46712C10.8613 8.58391 11.1533 8.6423 11.3869 8.6423C11.7372 8.6423 12.0876 8.46712 12.3212 8.05836H12.5547L13.0803 16.1752H12.6715C11.0365 11.27 9.16788 8.81749 7.18248 8.81749C6.13139 8.81749 5.31387 9.45982 4.72993 10.6861C4.14599 11.9124 3.79562 13.6642 3.79562 15.8832C3.79562 18.1606 4.08759 20.2043 4.67153 22.0146C5.25548 23.8248 6.0146 25.2262 7.06569 26.2773C8.0584 27.3284 9.22628 27.854 10.511 27.854C11.6204 27.854 12.5547 27.27 13.3139 26.1022L13.6058 26.2189C13.0803 28.2043 12.3796 29.6058 11.5037 30.5401C10.5693 31.5328 9.40146 32 8 32Z" fill="#fff"/>
<path d="M24.2919 32C22.5401 32 21.0219 31.4745 19.6788 30.4818C18.3357 29.4891 17.2846 28.0292 16.5255 26.219C15.7664 24.4088 15.416 22.3066 15.416 19.9124C15.416 17.5183 15.7664 15.4161 16.5255 13.6059C17.2846 11.7956 18.3357 10.3942 19.6788 9.34308C21.0219 8.35038 22.5401 7.82483 24.2919 7.82483C26.1021 7.82483 27.6204 8.35038 28.9635 9.34308C30.3065 10.3358 31.2992 11.7956 32.0584 13.6059C32.8175 15.4161 33.1678 17.5183 33.1678 19.9124C33.1678 22.3066 32.8175 24.4088 32.0584 26.219C31.2992 28.0292 30.2481 29.4891 28.9051 30.4818C27.6204 31.4745 26.0438 32 24.2919 32ZM24.2919 8.81753C23.124 8.81753 22.1897 9.75184 21.5474 11.6788C20.9051 13.5475 20.5547 16.3504 20.5547 19.9708C20.5547 23.5913 20.9051 26.3358 21.5474 28.2628C22.1897 30.1898 23.124 31.1241 24.2919 31.1241C25.5182 31.1241 26.4525 30.1898 27.0949 28.2628C27.7372 26.3358 28.0876 23.5913 28.0876 19.9708C28.0876 16.3504 27.7372 13.6059 27.0949 11.6788C26.4525 9.75184 25.5182 8.81753 24.2919 8.81753Z" fill="#fff"/>
<path d="M35.562 8.93427C36.9635 8.6423 38.1314 7.94157 39.0657 6.83208C40 5.72259 40.7007 4.32113 41.1679 2.45251H41.5182V8.87587H44.4379V10.1605H41.5182V26.9781C41.5182 28.2627 41.6934 29.197 42.0438 29.8394C42.3941 30.4233 43.0365 30.8321 43.9708 31.124V31.5328H35.562V31.124C35.9708 31.0073 36.3211 30.7153 36.4963 30.2481C36.6715 29.781 36.7883 29.0803 36.7883 28.2043V13.197C36.7883 12.1459 36.7299 11.3284 36.6131 10.7445C36.4963 10.1605 36.146 9.69339 35.6204 9.34303V8.93427H35.562Z" fill="#fff"/>
<path d="M53.7225 32C52.0875 32 50.6277 31.5328 49.4014 30.5401C48.1751 29.5474 47.2408 28.146 46.5401 26.3357C45.8393 24.5255 45.5474 22.3649 45.5474 19.9124C45.5474 17.5766 45.8977 15.4744 46.5401 13.6642C47.1824 11.854 48.1167 10.4525 49.2846 9.40143C50.4525 8.35033 51.7955 7.88318 53.3722 7.88318C54.7152 7.88318 55.8831 8.23354 56.8758 8.87588C57.8685 9.51822 58.6277 10.5109 59.2116 11.7372C59.7955 12.9635 60.0291 14.4233 60.0291 16.1168V17.0511H49.1678C49.2262 19.1533 49.5766 21.0219 50.2189 22.6569C50.8612 24.2919 51.6787 25.5766 52.7298 26.5109C53.7809 27.4452 54.9488 27.9124 56.2919 27.9124C57.6349 27.9124 58.7444 27.3284 59.6203 26.1022L59.9123 26.2189C59.3868 28.0292 58.6276 29.4306 57.5766 30.4817C56.6422 31.4744 55.2992 32 53.7225 32ZM52.905 8.81749C51.7955 8.81749 50.9196 9.45982 50.2189 10.8029C49.5182 12.146 49.1678 13.8978 49.1678 16.1752L52.0875 16.0584C53.4306 16 54.3649 15.7664 54.9488 15.2408C55.5328 14.7153 55.7663 13.8978 55.7663 12.7883C55.7663 11.562 55.5328 10.6277 55.0072 9.92697C54.4817 9.16785 53.7809 8.81749 52.905 8.81749Z" fill="#fff"/>
<path d="M62.4233 31.5328V31.1241C62.8321 31.0073 63.1825 30.7153 63.3576 30.2482C63.5328 29.781 63.6496 29.0803 63.6496 28.2044V13.0803C63.6496 11.854 63.5912 11.0365 63.416 10.5109C63.2409 9.9854 62.9489 9.57664 62.4233 9.28467V8.87591L68.2044 8L68.3212 12.4964C68.7299 11.0949 69.3139 10.0438 70.0146 9.22628C70.7153 8.46715 71.4744 8.05839 72.292 8.05839C72.8759 8.05839 73.2847 8.23358 73.635 8.52555C73.927 8.81752 74.1022 9.22628 74.1022 9.81022C74.1022 10.2774 73.9854 10.6277 73.6934 10.9197C73.4014 11.2117 73.0511 11.3285 72.6423 11.3285C72.2336 11.3285 71.8832 11.2701 71.708 11.1533C71.4744 11.0365 71.2409 10.9781 70.8905 10.9781C70.3649 10.9781 69.8978 11.2701 69.4306 11.9124C68.9635 12.4964 68.6131 13.3139 68.3795 14.2482V27.1533C68.3795 28.438 68.5547 29.3723 68.8467 29.9562C69.1387 30.5401 69.781 30.9489 70.6569 31.1825V31.5328H62.4233Z" fill="#fff"/>
<path d="M76.0293 8.93431L81.9855 8.29197V28.2044C81.9855 29.1387 82.1023 29.8394 82.2775 30.3066C82.4527 30.7737 82.7446 31.0657 83.2118 31.1825V31.5328H76.0293V31.1241C76.4381 31.0073 76.7884 30.7153 76.9636 30.2482C77.1388 29.781 77.2556 29.0803 77.2556 28.2044V13.2555C77.2556 12.0292 77.1972 11.1533 77.022 10.6277C76.8468 10.1022 76.5548 9.63504 76.0293 9.34307V8.93431ZM79.4162 0C80.1753 0 80.876 0.291971 81.3432 0.817518C81.8687 1.34307 82.1023 1.9854 82.1023 2.74453C82.1023 3.50365 81.8687 4.20438 81.3432 4.72993C80.8176 5.25547 80.1753 5.54744 79.4162 5.54744C78.657 5.54744 77.9563 5.25547 77.4308 4.72993C76.9052 4.20438 76.6132 3.56204 76.6132 2.74453C76.6132 1.9854 76.9052 1.34307 77.4308 0.817518C77.9563 0.291971 78.657 0 79.4162 0Z" fill="#fff"/>
<path d="M93.7225 32C92.0875 32 90.6277 31.5328 89.4014 30.5401C88.1751 29.5474 87.2408 28.146 86.5401 26.3357C85.8393 24.5255 85.5474 22.3649 85.5474 19.9124C85.5474 17.5766 85.8977 15.4744 86.5401 13.6642C87.1824 11.854 88.1167 10.4525 89.2846 9.40143C90.4525 8.35033 91.7955 7.88318 93.3722 7.88318C94.7152 7.88318 95.8831 8.23354 96.8758 8.87588C97.8685 9.57661 98.6276 10.5109 99.2116 11.7372C99.7955 12.9635 100.029 14.4233 100.029 16.1168V17.0511H89.1678C89.2262 19.1533 89.5766 21.0219 90.2189 22.6569C90.8612 24.2919 91.6788 25.5766 92.7298 26.5109C93.7809 27.4452 94.9488 27.9124 96.2919 27.9124C97.6349 27.9124 98.7444 27.3284 99.6204 26.1022L99.9123 26.2189C99.3868 28.0292 98.6277 29.4306 97.5766 30.4817C96.6423 31.4744 95.3576 32 93.7225 32ZM92.905 8.81749C91.7955 8.81749 90.9196 9.45982 90.2189 10.8029C89.5182 12.146 89.1678 13.8978 89.1678 16.1752L92.0875 16.0584C93.4306 16 94.3649 15.7664 94.9488 15.2408C95.5328 14.7153 95.7663 13.8978 95.7663 12.7883C95.7663 11.562 95.5328 10.6277 95.0072 9.92697C94.4817 9.16785 93.7809 8.81749 92.905 8.81749Z" fill="#fff"/>
</g>
<defs>
<clipPath id="clip0_170_6009">
<rect width="100.029" height="32" fill="white"/>
</clipPath>
</defs>
</svg>
