<svg viewBox="100%" fill="currentColor" xmlns="http://www.w3.org/2000/svg">
<g clip-path="url(#clip0_705_6777)">
<path fill-rule="evenodd" clip-rule="evenodd" d="M5.76255 2.51764C6.51879 2.27836 7.31639 2.19827 8.1051 2.28242C8.89382 2.36656 9.65657 2.61312 10.3453 3.00656C10.703 3.21089 11.0368 3.45254 11.3412 3.72682C11.436 3.81226 11.58 3.81253 11.6752 3.72747C12.5133 2.97824 13.5597 2.48546 14.6889 2.32356C16.1973 2.10728 17.7299 2.49913 18.9494 3.41291C20.1689 4.32669 20.9756 5.68755 21.1918 7.19611C21.2839 7.83831 21.2658 8.48487 21.1441 9.1098C20.7945 8.62157 20.313 8.23423 19.7514 7.99975C19.7509 7.80312 19.7367 7.60569 19.7084 7.40882C19.5486 6.29373 18.9524 5.28781 18.0509 4.61236C17.1494 3.9369 16.0166 3.64725 14.9016 3.80712C13.7866 3.96699 12.7808 4.56329 12.1054 5.46483C11.9636 5.6541 11.7408 5.76532 11.5043 5.76486C11.2678 5.76441 11.0454 5.65234 10.9044 5.46252C10.5546 4.9919 10.1112 4.5988 9.60211 4.30797C9.09299 4.01715 8.52917 3.8349 7.94615 3.7727C7.36314 3.7105 6.77356 3.7697 6.21455 3.94657C5.65554 4.12345 5.13921 4.41416 4.69806 4.8004C4.25691 5.18665 3.90051 5.66006 3.6513 6.19082C3.40209 6.72158 3.26546 7.2982 3.25002 7.88436C3.23458 8.47052 3.34067 9.05353 3.56159 9.59667C3.78252 10.1398 4.11351 10.6313 4.53371 11.0403L4.53845 11.0449L4.54002 11.0464L11.3264 17.7683C11.4241 17.8652 11.5818 17.8648 11.6791 17.7675L13.1757 16.2716C13.5348 16.639 13.9806 16.9218 14.4802 17.0867L12.0355 19.5305C11.7439 19.8222 11.2715 19.8233 10.9785 19.5331L3.48691 12.1127L3.48547 12.1113C2.91851 11.5587 2.47184 10.8949 2.17351 10.1614C1.87462 9.42662 1.73111 8.63789 1.75199 7.84489C1.77288 7.05189 1.95772 6.27181 2.29487 5.55376C2.63202 4.83572 3.11418 4.19527 3.71098 3.67274C4.30778 3.15021 5.0063 2.75692 5.76255 2.51764ZM17.75 11C17.75 10.5858 18.0858 10.25 18.5 10.25C18.6124 10.25 18.7183 10.2745 18.8133 10.3183C19.0716 10.4373 19.25 10.6981 19.25 11V13C19.25 13.1381 19.3619 13.25 19.5 13.25H21.5C21.9142 13.25 22.25 13.5858 22.25 14C22.25 14.4142 21.9142 14.75 21.5 14.75H19.5C19.3619 14.75 19.25 14.8619 19.25 15V17C19.25 17.4142 18.9142 17.75 18.5 17.75C18.0858 17.75 17.75 17.4142 17.75 17V15C17.75 14.8619 17.6381 14.75 17.5 14.75H15.5C15.2151 14.75 14.9668 14.5912 14.8397 14.3561C14.7825 14.2504 14.75 14.1294 14.75 14C14.75 13.5858 15.0858 13.25 15.5 13.25H17.5C17.6381 13.25 17.75 13.1381 17.75 13V11Z" fill="#271B47"/>
<path fill-rule="evenodd" clip-rule="evenodd" d="M5.76255 2.51764C6.51879 2.27836 7.31639 2.19827 8.1051 2.28242C8.89382 2.36656 9.65657 2.61312 10.3453 3.00656C10.703 3.21089 11.0368 3.45254 11.3412 3.72682C11.436 3.81226 11.58 3.81253 11.6752 3.72747C12.5133 2.97824 13.5597 2.48546 14.6889 2.32356C16.1973 2.10728 17.7299 2.49913 18.9494 3.41291C20.1689 4.32669 20.9756 5.68755 21.1918 7.19611C21.2839 7.83831 21.2658 8.48487 21.1441 9.1098C20.7945 8.62157 20.313 8.23423 19.7514 7.99975C19.7509 7.80312 19.7367 7.60569 19.7084 7.40882C19.5486 6.29373 18.9524 5.28781 18.0509 4.61236C17.1494 3.9369 16.0166 3.64725 14.9016 3.80712C13.7866 3.96699 12.7808 4.56329 12.1054 5.46483C11.9636 5.6541 11.7408 5.76532 11.5043 5.76486C11.2678 5.76441 11.0454 5.65234 10.9044 5.46252C10.5546 4.9919 10.1112 4.5988 9.60211 4.30797C9.09299 4.01715 8.52917 3.8349 7.94615 3.7727C7.36314 3.7105 6.77356 3.7697 6.21455 3.94657C5.65554 4.12345 5.13921 4.41416 4.69806 4.8004C4.25691 5.18665 3.90051 5.66006 3.6513 6.19082C3.40209 6.72158 3.26546 7.2982 3.25002 7.88436C3.23458 8.47052 3.34067 9.05353 3.56159 9.59667C3.78252 10.1398 4.11351 10.6313 4.53371 11.0403L4.53845 11.0449L4.54002 11.0464L11.3264 17.7683C11.4241 17.8652 11.5818 17.8648 11.6791 17.7675L13.1757 16.2716C13.5348 16.639 13.9806 16.9218 14.4802 17.0867L12.0355 19.5305C11.7439 19.8222 11.2715 19.8233 10.9785 19.5331L3.48691 12.1127L3.48547 12.1113C2.91851 11.5587 2.47184 10.8949 2.17351 10.1614C1.87462 9.42662 1.73111 8.63789 1.75199 7.84489C1.77288 7.05189 1.95772 6.27181 2.29487 5.55376C2.63202 4.83572 3.11418 4.19527 3.71098 3.67274C4.30778 3.15021 5.0063 2.75692 5.76255 2.51764ZM17.75 11C17.75 10.5858 18.0858 10.25 18.5 10.25C18.6124 10.25 18.7183 10.2745 18.8133 10.3183C19.0716 10.4373 19.25 10.6981 19.25 11V13C19.25 13.1381 19.3619 13.25 19.5 13.25H21.5C21.9142 13.25 22.25 13.5858 22.25 14C22.25 14.4142 21.9142 14.75 21.5 14.75H19.5C19.3619 14.75 19.25 14.8619 19.25 15V17C19.25 17.4142 18.9142 17.75 18.5 17.75C18.0858 17.75 17.75 17.4142 17.75 17V15C17.75 14.8619 17.6381 14.75 17.5 14.75H15.5C15.2151 14.75 14.9668 14.5912 14.8397 14.3561C14.7825 14.2504 14.75 14.1294 14.75 14C14.75 13.5858 15.0858 13.25 15.5 13.25H17.5C17.6381 13.25 17.75 13.1381 17.75 13V11Z" fill="#271B47" fill-opacity="0.2"/>
</g>
<defs>
<clipPath id="clip0_705_6777">
<rect width="21" height="21" fill="white" transform="translate(1.5 0.5)"/>
</clipPath>
</defs>
</svg>
